<svg width="63" height="32" viewBox="0 0 63 32" fill="none" xmlns="http://www.w3.org/2000/svg">
<path d="M42.3304 16.4326C42.3887 16.4215 42.5555 16.3993 42.7 16.3854C42.8445 16.3715 43.1947 16.3659 43.4782 16.3743C43.7617 16.3798 44.1174 16.4021 44.2703 16.4243C44.4231 16.4465 44.6427 16.4854 44.7567 16.5105C44.8706 16.5355 45.0902 16.5938 45.243 16.6355C45.3959 16.68 45.6655 16.7745 45.8406 16.8439C46.0157 16.9134 46.2908 17.0412 46.452 17.1274C46.6132 17.2108 46.8494 17.3497 46.9801 17.4331C47.1107 17.5192 47.3414 17.6832 47.4942 17.7999C47.6471 17.9166 47.9278 18.1667 48.1196 18.3585C48.3141 18.5503 48.5559 18.8115 48.6587 18.9421C48.7616 19.0727 48.9506 19.3339 49.0784 19.5257C49.2062 19.7174 49.3702 19.9842 49.448 20.1232C49.5231 20.2621 49.6565 20.5317 49.7426 20.7262C49.8288 20.9235 49.9539 21.2515 50.0233 21.4571C50.0928 21.6628 50.1484 21.8462 50.1484 21.8601C50.1484 21.874 50.0984 21.8879 50.0372 21.8879C49.9761 21.8879 49.7426 21.8684 49.5175 21.8462C49.2896 21.8212 48.92 21.7656 48.6893 21.7183C48.4614 21.6711 48.1168 21.5849 47.925 21.5266C47.7332 21.471 47.4525 21.3765 47.2997 21.3209C47.1468 21.2626 46.7827 21.1014 46.4937 20.9569C46.2047 20.8152 45.7961 20.5873 45.5904 20.4511C45.3848 20.3149 45.0791 20.0926 44.9095 19.9564C44.74 19.823 44.4954 19.6091 44.3592 19.4868C44.2258 19.3617 43.9951 19.1255 43.8451 18.9588C43.6978 18.7948 43.4643 18.5141 43.3309 18.3335C43.1947 18.1556 43.0002 17.8805 42.9001 17.7193C42.8001 17.5581 42.6055 17.208 42.2275 16.4549L42.3304 16.4326Z" fill="#5C514F"/>
<path fill-rule="evenodd" clip-rule="evenodd" d="M37.5588 12.606V16.1631C37.5588 19.5313 37.5616 19.7203 37.6089 19.7203C37.6394 19.7203 37.7089 19.6258 37.8173 19.434C37.9062 19.2784 38.0619 19.0311 38.1647 18.8865C38.2675 18.742 38.501 18.4697 38.6844 18.2807C38.8679 18.089 39.1124 17.8583 39.2264 17.7666C39.3403 17.6749 39.5655 17.5137 39.7267 17.4081C39.8879 17.3025 40.1241 17.1636 40.2547 17.0969C40.3853 17.0302 40.5966 16.9301 40.7272 16.8773C40.8578 16.8217 41.0635 16.7467 41.1858 16.705C41.308 16.6661 41.5082 16.6077 41.6304 16.5772C41.7527 16.5438 41.9362 16.5049 42.228 16.4549L42.4475 16.8995C42.5698 17.1441 42.7672 17.4998 42.8867 17.6916C43.0062 17.8833 43.2035 18.1696 43.3258 18.3307C43.4481 18.4919 43.6343 18.7226 43.7399 18.8449C43.8483 18.9671 44.0651 19.1978 44.2263 19.3562C44.3902 19.5146 44.6765 19.7703 44.8683 19.9231C45.06 20.076 45.3852 20.315 45.5909 20.4511C45.7965 20.5873 46.2051 20.8152 46.4941 20.9569C46.7832 21.1014 47.1473 21.2626 47.3001 21.321C47.453 21.3766 47.7337 21.471 47.9255 21.5266C48.1172 21.585 48.4591 21.6711 48.6897 21.7184C48.9176 21.7656 49.2901 21.8212 49.5152 21.8462C49.7431 21.8684 49.9765 21.8879 50.0377 21.8879C50.1489 21.8879 50.1489 21.8879 50.1905 22.0352C50.2128 22.113 50.2545 22.3047 50.285 22.4576C50.3156 22.6104 50.3601 22.8856 50.3851 23.069C50.4101 23.2524 50.4379 23.6331 50.4462 23.9166C50.4574 24.2278 50.449 24.5947 50.4296 24.8476C50.4101 25.0782 50.3712 25.4145 50.3406 25.5979C50.3101 25.7813 50.2545 26.062 50.2156 26.2232C50.1766 26.3844 50.0933 26.6706 50.0321 26.8623C49.9682 27.0541 49.8626 27.3403 49.7959 27.5015C49.7292 27.6627 49.593 27.9489 49.493 28.1407C49.3929 28.3324 49.2206 28.627 49.1094 28.7938C48.9982 28.9605 48.8037 29.2301 48.6731 29.3913C48.5452 29.5497 48.309 29.8137 48.1478 29.9748C47.9866 30.136 47.7365 30.3611 47.5919 30.4778C47.4474 30.5946 47.214 30.7641 47.0778 30.8558C46.9416 30.9475 46.7276 31.0809 46.6053 31.1476C46.483 31.2171 46.2551 31.331 46.0967 31.4033C45.9411 31.4727 45.6465 31.5867 45.4436 31.6534C45.2435 31.7229 44.9266 31.809 44.7432 31.8451C44.5598 31.884 44.2902 31.9313 44.1457 31.9507C43.9928 31.973 43.6315 31.9869 43.2841 31.9869C42.8839 31.9869 42.5726 31.9702 42.3392 31.9368C42.1474 31.9118 41.8472 31.859 41.6721 31.8201C41.497 31.7812 41.2024 31.6978 41.019 31.6395C40.8356 31.5783 40.4965 31.4366 40.2686 31.3255C40.0379 31.2115 39.7406 31.0448 39.6016 30.9531C39.4626 30.8586 39.2319 30.6863 39.0874 30.564C38.9429 30.4445 38.7122 30.2277 38.576 30.0832C38.4399 29.9387 38.2342 29.6942 38.1175 29.5413C38.0007 29.3857 37.8312 29.1328 37.7395 28.9772C37.6089 28.7576 37.5588 28.6993 37.4477 28.6965V31.5867H34.1681L34.1626 22.1158C34.1598 16.9051 34.1681 12.6337 34.182 12.6254C34.1959 12.6143 34.9602 12.606 37.5588 12.606V12.606ZM41.4915 19.623C41.3692 19.648 41.1635 19.7008 41.0329 19.7397C40.9023 19.7786 40.6911 19.8564 40.5604 19.9148C40.4298 19.9731 40.2241 20.0787 40.1019 20.151C39.9796 20.2233 39.7795 20.3594 39.6572 20.4567C39.5349 20.5512 39.3292 20.7402 39.1986 20.8763C39.068 21.0125 38.8818 21.2432 38.7845 21.3877C38.6872 21.5322 38.5483 21.7712 38.476 21.9157C38.4037 22.0602 38.3037 22.2909 38.2564 22.4298C38.2064 22.5688 38.1425 22.7744 38.1147 22.8883C38.0869 23.0023 38.0424 23.2413 38.0146 23.4164C37.9785 23.6637 37.9729 23.8666 37.9813 24.3195C37.9924 24.7753 38.0091 24.9698 38.0563 25.2088C38.0925 25.3756 38.1619 25.6451 38.2147 25.8063C38.2675 25.9675 38.3676 26.2176 38.4371 26.3621C38.5066 26.5066 38.6427 26.7456 38.7372 26.8901C38.8345 27.0346 38.9957 27.2514 39.0985 27.3709C39.1986 27.4876 39.3792 27.6683 39.496 27.7683C39.6155 27.8683 39.8128 28.0184 39.9351 28.099C40.0574 28.1824 40.2881 28.3102 40.4493 28.3852C40.6105 28.4631 40.8356 28.5548 40.9495 28.5937C41.0635 28.6326 41.2775 28.6882 41.422 28.7187C41.5665 28.7521 41.8611 28.791 42.0751 28.8104C42.3753 28.8354 42.5504 28.8354 42.8394 28.8104C43.0451 28.7938 43.3591 28.7465 43.5342 28.7076C43.7093 28.6687 43.965 28.5937 44.104 28.5381C44.2429 28.4853 44.4736 28.3797 44.6181 28.3047C44.7627 28.2268 44.9822 28.0935 45.1017 28.0073C45.224 27.9212 45.4436 27.7294 45.5881 27.5849C45.7354 27.4376 45.9355 27.2069 46.03 27.0708C46.1273 26.9318 46.2607 26.7206 46.3274 26.5983C46.3941 26.4761 46.4941 26.2649 46.5497 26.1259C46.6053 25.987 46.6859 25.7368 46.7304 25.5701C46.7748 25.4034 46.8332 25.1199 46.8582 24.9448C46.8943 24.6947 46.8999 24.4946 46.8888 24.0277C46.8805 23.5636 46.8638 23.3636 46.8138 23.1246C46.7804 22.9578 46.7054 22.6744 46.647 22.4993C46.5914 22.3242 46.4802 22.0546 46.4052 21.9018C46.3274 21.7489 46.1856 21.5044 46.0884 21.3599C45.98 21.1959 45.791 20.9764 45.5909 20.7735C45.3852 20.5679 45.1768 20.39 45.0072 20.2788C44.8627 20.1844 44.6293 20.051 44.4931 19.9843C44.3541 19.9176 44.1123 19.8175 43.9511 19.7647C43.7899 19.7091 43.5092 19.6397 43.3258 19.6091C43.1396 19.5785 42.8144 19.548 42.5893 19.5396C42.3669 19.5341 42.0807 19.5396 41.9501 19.5535C41.8194 19.5674 41.6138 19.598 41.4915 19.623ZM26.7614 16.2882C27.0199 16.2965 27.3895 16.3215 27.5813 16.3437C27.7731 16.3688 28.0899 16.4243 28.29 16.466C28.4901 16.5105 28.8653 16.6161 29.1238 16.7022C29.4406 16.8078 29.7603 16.9385 30.0965 17.1052C30.3717 17.2414 30.7469 17.4526 30.9303 17.5721C31.1137 17.6943 31.3889 17.8917 31.5418 18.0139C31.6946 18.1362 31.9392 18.3502 32.3477 18.742L32.0142 19.0866C31.828 19.2756 31.3389 19.7758 30.166 20.9708L30.0465 20.843C29.9826 20.7707 29.8353 20.6346 29.7213 20.5401C29.6074 20.4456 29.4128 20.3011 29.2906 20.2177C29.1683 20.1371 28.9293 20.0037 28.7625 19.9259C28.5957 19.8453 28.3567 19.7453 28.2344 19.7036C28.1122 19.6647 27.8731 19.6008 27.7064 19.5646C27.5396 19.5285 27.2256 19.4868 27.0116 19.4674C26.7197 19.4451 26.5335 19.4424 26.2612 19.4674C26.0611 19.484 25.7692 19.5285 25.608 19.5646C25.4468 19.6008 25.2106 19.6702 25.08 19.7175C24.9494 19.7647 24.7326 19.8592 24.5936 19.9315C24.4547 20.0009 24.2434 20.1232 24.1211 20.2066C23.9989 20.2872 23.7932 20.4456 23.6626 20.5595C23.5319 20.6735 23.3374 20.8708 23.229 20.9986C23.1206 21.1292 22.9705 21.3293 22.8927 21.4432C22.8149 21.5572 22.6954 21.7684 22.6231 21.9101C22.5536 22.0491 22.4564 22.2631 22.4091 22.3826C22.3619 22.4993 22.2896 22.7411 22.2451 22.9161C22.2035 23.0912 22.1507 23.3663 22.134 23.5275C22.1117 23.7109 22.1034 23.9999 22.1145 24.3056C22.1229 24.6419 22.1479 24.8865 22.1896 25.0977C22.2229 25.2644 22.2868 25.5229 22.3341 25.6674C22.3786 25.8119 22.5036 26.1064 22.6092 26.3204C22.7148 26.5344 22.8788 26.8179 22.9733 26.9513C23.0706 27.0819 23.2318 27.282 23.3318 27.3959C23.4319 27.5071 23.6376 27.6988 23.7904 27.8211C23.9405 27.9462 24.1906 28.1185 24.3435 28.2102C24.4963 28.2991 24.7326 28.4214 24.8715 28.477C25.0105 28.5353 25.2328 28.6131 25.3718 28.6548C25.5108 28.6937 25.7331 28.7437 25.8721 28.766C26.011 28.7882 26.2473 28.8132 26.4001 28.8243C26.553 28.8327 26.8393 28.8271 27.0394 28.8104C27.2395 28.7938 27.5257 28.7521 27.6786 28.7215C27.8314 28.6909 28.0816 28.6242 28.2344 28.5742C28.3873 28.5214 28.6374 28.4186 28.7903 28.3408C28.9431 28.2657 29.1794 28.1268 29.3183 28.0351C29.4573 27.9434 29.6602 27.7822 29.977 27.4876L30.7524 28.2657C31.1804 28.6937 31.6724 29.1912 32.1532 29.7053L31.9447 29.8998C31.8308 30.0082 31.6112 30.1944 31.4584 30.3167C31.3055 30.4417 31.0415 30.6307 30.8747 30.7391C30.708 30.8502 30.4384 31.0086 30.2772 31.0948C30.116 31.1809 29.8547 31.306 29.6935 31.3727C29.5324 31.4394 29.2405 31.5478 29.0404 31.6145C28.8403 31.6784 28.5179 31.7673 28.3178 31.8118C28.1177 31.8535 27.8064 31.909 27.623 31.9313C27.4396 31.9535 27.1088 31.9813 26.8865 31.9924C26.6447 32.0035 26.3168 31.998 26.0666 31.9757C25.8359 31.9591 25.4997 31.9202 25.3162 31.8896C25.1328 31.859 24.8382 31.7979 24.6631 31.7534C24.488 31.709 24.199 31.6228 24.0239 31.5617C23.8488 31.5005 23.5986 31.406 23.468 31.3505C23.3374 31.2949 23.0873 31.1754 22.9122 31.0837C22.7371 30.992 22.4175 30.7974 22.2035 30.6557C21.9895 30.5112 21.6893 30.2889 21.5364 30.161C21.3836 30.0332 21.1029 29.7664 20.9111 29.5691C20.7193 29.3718 20.4442 29.0522 20.2997 28.8605C20.1551 28.6659 19.9356 28.3408 19.8133 28.1379C19.691 27.9323 19.5215 27.6099 19.4325 27.4181C19.3464 27.2264 19.2185 26.9012 19.1463 26.6956C19.0768 26.49 18.9823 26.1648 18.9351 25.9731C18.8878 25.7813 18.8239 25.4645 18.7961 25.2644C18.7627 25.0449 18.7349 24.678 18.7238 24.3334C18.7127 23.9194 18.7211 23.6554 18.7516 23.3608C18.7766 23.1385 18.8267 22.8022 18.8656 22.6104C18.9045 22.4187 18.9795 22.113 19.0296 21.9296C19.0824 21.7462 19.1852 21.446 19.2575 21.2626C19.3297 21.0792 19.4715 20.7679 19.5743 20.5679C19.6771 20.3678 19.8522 20.0621 19.9662 19.887C20.0801 19.7119 20.2747 19.4424 20.3942 19.2895C20.5137 19.1367 20.7638 18.856 20.95 18.667C21.1362 18.478 21.4253 18.2112 21.592 18.0723C21.7588 17.9361 22.0534 17.7194 22.2451 17.5915C22.4369 17.4665 22.7371 17.2858 22.9122 17.1941C23.0873 17.1024 23.3624 16.9718 23.5236 16.9051C23.6848 16.8384 23.9599 16.7356 24.135 16.68C24.3101 16.6216 24.6047 16.5383 24.7882 16.4966C24.9716 16.4521 25.2523 16.3965 25.4135 16.3715C25.5747 16.3465 25.8359 16.316 25.9971 16.3021C26.1583 16.2882 26.503 16.2826 26.7614 16.2882ZM7.43172 16.3743C7.74578 16.3799 8.08485 16.4049 8.30719 16.4382C8.50452 16.4688 8.81301 16.5299 8.98811 16.5744C9.1632 16.6216 9.43279 16.705 9.58565 16.7606C9.73851 16.819 9.96362 16.9107 10.0859 16.9662C10.2082 17.0246 10.4333 17.1441 10.5862 17.233C10.739 17.322 10.9892 17.4915 11.142 17.6054C11.2949 17.7221 11.5367 17.9278 11.6812 18.0667C11.8229 18.2057 12.0314 18.428 12.1426 18.567C12.2537 18.7059 12.4121 18.9171 12.4927 19.0394C12.5761 19.1617 12.6956 19.3645 12.7596 19.4924C12.8485 19.6619 12.893 19.7203 12.9346 19.7203C12.9902 19.7203 12.9902 19.7008 12.9902 16.8023H16.2698V31.5867H12.9902V30.1416C12.9902 28.7826 12.9875 28.6965 12.9402 28.6993C12.9096 28.6993 12.829 28.8049 12.7123 29.005C12.6123 29.1717 12.4316 29.4441 12.3093 29.6052C12.187 29.7692 11.9619 30.0332 11.809 30.1916C11.6562 30.3528 11.4366 30.5612 11.3227 30.6557C11.2087 30.753 10.9892 30.9142 10.8363 31.017C10.6835 31.1198 10.4083 31.2754 10.2249 31.3644C10.0414 31.4561 9.76074 31.5728 9.59954 31.6284C9.43835 31.6839 9.20767 31.7534 9.08538 31.784C8.96309 31.8173 8.73242 31.8646 8.57122 31.8952C8.41002 31.9229 8.05428 31.9618 7.77913 31.9813C7.39004 32.0063 7.17881 32.0063 6.83418 31.9813C6.58961 31.9646 6.25054 31.9257 6.08379 31.8952C5.91703 31.8674 5.653 31.809 5.50014 31.7701C5.34728 31.7312 5.11661 31.6645 4.98598 31.62C4.85536 31.5756 4.61078 31.4811 4.44403 31.4116C4.27727 31.3393 3.98267 31.1921 3.7909 31.0837C3.59913 30.9753 3.3629 30.828 3.26284 30.7585C3.16279 30.6863 2.99604 30.5612 2.88764 30.4778C2.77925 30.3917 2.5986 30.2361 2.48465 30.1305C2.3707 30.0249 2.1706 29.8248 2.04275 29.6858C1.91769 29.5469 1.70924 29.294 1.58417 29.1272C1.45911 28.9605 1.28957 28.716 1.2062 28.5853C1.12282 28.4547 0.978297 28.1935 0.881023 28.0017C0.78375 27.81 0.644787 27.4987 0.569747 27.307C0.494707 27.1152 0.389096 26.8095 0.33629 26.6261C0.283484 26.4427 0.208444 26.1426 0.169534 25.9592C0.130625 25.7757 0.0778191 25.4645 0.0500266 25.2644C0.0138963 24.9948 0 24.7197 0 24.1806C0 23.6415 0.011117 23.3663 0.0500266 23.0968C0.0778191 22.8967 0.122287 22.616 0.152859 22.4715C0.183431 22.327 0.244574 22.063 0.291822 21.8879C0.339069 21.7128 0.439122 21.3988 0.516941 21.1931C0.591981 20.9875 0.728164 20.6679 0.817101 20.4845C0.906037 20.3011 1.06167 20.0121 1.16451 19.8453C1.26734 19.6786 1.45355 19.4007 1.5814 19.2339C1.70646 19.0672 1.90935 18.8171 2.03441 18.6781C2.15948 18.5392 2.37626 18.3252 2.518 18.1974C2.65975 18.0695 2.88764 17.8805 3.02661 17.7749C3.16557 17.6721 3.38791 17.5165 3.52687 17.4276C3.66584 17.3414 3.9521 17.183 4.1661 17.0774C4.38844 16.969 4.74974 16.8217 5.01377 16.7356C5.26669 16.6522 5.62799 16.5522 5.81976 16.516C6.01153 16.4771 6.28667 16.4299 6.43119 16.416C6.57571 16.3993 6.74525 16.3799 6.80639 16.3743C6.86754 16.3688 7.14824 16.3688 7.43172 16.3743ZM7.27887 19.5841C7.15658 19.6008 6.93146 19.6452 6.7786 19.6841C6.62574 19.723 6.40618 19.7897 6.29223 19.837C6.17828 19.8814 5.97262 19.9787 5.83365 20.0482C5.69469 20.1204 5.48903 20.2455 5.37508 20.3289C5.26113 20.4122 5.09993 20.5373 5.01933 20.6068C4.93596 20.6762 4.7831 20.8346 4.6747 20.9569C4.56909 21.0792 4.40512 21.2904 4.31618 21.4294C4.22447 21.5683 4.09384 21.7906 4.02714 21.9296C3.96044 22.0685 3.86038 22.3103 3.8048 22.4715C3.74921 22.6327 3.67417 22.9134 3.63526 23.0968C3.5769 23.3691 3.56022 23.5359 3.54911 24.0138C3.53799 24.4752 3.54355 24.6669 3.58246 24.9309C3.60747 25.1143 3.66028 25.3839 3.69919 25.5284C3.73532 25.6729 3.80758 25.898 3.8576 26.0286C3.90763 26.1593 3.99935 26.3649 4.06049 26.4872C4.12441 26.6095 4.25226 26.829 4.34953 26.9735C4.4607 27.143 4.64413 27.357 4.85814 27.5738C5.07492 27.7878 5.28892 27.9712 5.45845 28.0823C5.60298 28.1796 5.84755 28.3186 6.00041 28.3908C6.15327 28.4658 6.4034 28.5631 6.55626 28.6131C6.70912 28.6604 6.97315 28.7243 7.1399 28.7521C7.30666 28.7799 7.58458 28.8104 7.75134 28.8216C7.92365 28.8327 8.20992 28.8271 8.40446 28.8104C8.59623 28.791 8.87138 28.7521 9.0159 28.7215C9.16042 28.6909 9.3911 28.6298 9.53006 28.5826C9.66902 28.5353 9.88025 28.4519 10.0025 28.3936C10.1248 28.338 10.336 28.2185 10.475 28.1296C10.614 28.0406 10.8308 27.8767 10.9614 27.7683C11.0892 27.6599 11.2754 27.4765 11.3727 27.3626C11.4728 27.2486 11.6312 27.0346 11.7285 26.8901C11.8229 26.7456 11.9591 26.5066 12.0258 26.3621C12.0953 26.2176 12.1898 25.987 12.2398 25.848C12.2871 25.709 12.3566 25.4478 12.3927 25.2644C12.4316 25.081 12.4733 24.7614 12.4872 24.5558C12.5039 24.3279 12.5039 24.0444 12.49 23.8332C12.4761 23.6415 12.4511 23.3969 12.4344 23.2913C12.4177 23.1857 12.3732 22.9773 12.3343 22.8328C12.2982 22.6883 12.2343 22.4798 12.1926 22.3742C12.1537 22.2686 12.062 22.0602 11.9897 21.9157C11.9174 21.7712 11.7785 21.5322 11.6812 21.3877C11.5728 21.2209 11.3866 21.0042 11.1865 20.8013C10.9753 20.5901 10.7696 20.4178 10.5862 20.2955C10.4333 20.1955 10.1776 20.051 10.0164 19.9759C9.85523 19.8981 9.62456 19.8036 9.50227 19.7647C9.37998 19.723 9.16042 19.6675 9.0159 19.6369C8.87138 19.6091 8.62125 19.5702 8.46005 19.5535C8.29885 19.5396 8.06817 19.5285 7.94589 19.5313C7.8236 19.5341 7.67352 19.5396 7.61238 19.5452C7.55123 19.548 7.40115 19.5674 7.27887 19.5841Z" fill="black"/>
<path d="M53.7478 0.047494C53.9007 0.0308198 54.0702 0.0113667 54.123 0.00580863C54.1759 0.000250584 54.501 -0.00252844 54.8457 0.00302961C55.2903 0.0113667 55.5766 0.0280408 55.8323 0.0697261C56.0324 0.100295 56.3187 0.150318 56.4715 0.183666C56.6244 0.217014 56.9245 0.300385 57.1385 0.369861C57.3525 0.439336 57.6972 0.56995 57.9028 0.661658C58.1085 0.750587 58.4031 0.895096 58.556 0.981246C58.7088 1.06462 58.9589 1.21746 59.1118 1.32029C59.2647 1.42033 59.5148 1.60097 59.6677 1.72324C59.8205 1.84552 60.0873 2.08452 60.2624 2.25126C60.4347 2.42078 60.6765 2.67923 60.7988 2.82374C60.9211 2.96825 61.0934 3.18779 61.1796 3.31007C61.2657 3.43234 61.4102 3.65189 61.502 3.7964C61.5909 3.9409 61.7493 4.22992 61.8521 4.43557C61.955 4.64122 62.1023 4.98026 62.1773 5.18591C62.2551 5.39155 62.3635 5.73615 62.4191 5.95014C62.4747 6.16412 62.5442 6.48927 62.572 6.67268C62.6025 6.8561 62.6387 7.15623 62.6554 7.33965C62.6693 7.52306 62.6831 7.80375 62.6831 7.96493C62.6831 8.12611 62.6693 8.40679 62.6554 8.59021C62.6387 8.77362 62.6025 9.07376 62.572 9.25717C62.5442 9.44059 62.4747 9.76573 62.4191 9.97972C62.3635 10.1937 62.2551 10.5383 62.1773 10.744C62.1023 10.9496 61.955 11.2886 61.8521 11.4943C61.7493 11.6999 61.5992 11.9751 61.5186 12.1057C61.438 12.2363 61.2935 12.453 61.1962 12.592C61.099 12.731 60.9211 12.9616 60.7988 13.1061C60.6765 13.2506 60.4347 13.5091 60.2624 13.6786C60.0873 13.8453 59.815 14.0899 59.6538 14.2149C59.4926 14.3428 59.3397 14.4567 59.3119 14.4706C59.2869 14.4845 59.2591 14.4929 59.2535 14.4873C59.248 14.4845 59.2619 14.3706 59.2813 14.2316C59.3008 14.0927 59.3314 13.8175 59.348 13.6202C59.3619 13.4229 59.3758 13.1284 59.3758 12.9672C59.3758 12.806 59.3619 12.5114 59.348 12.3141C59.3314 12.1168 59.298 11.8222 59.2758 11.661C59.2535 11.4998 59.2007 11.2247 59.1618 11.0496C59.1229 10.8746 59.0479 10.5855 58.9951 10.4105C58.9423 10.2354 58.8561 9.97138 58.8033 9.82687C58.7477 9.68236 58.5893 9.32665 58.4448 9.03485C58.2864 8.70971 58.0779 8.34565 57.9084 8.08998C57.7555 7.85933 57.5193 7.53418 57.3859 7.36744C57.2525 7.2007 56.9662 6.88667 56.7522 6.67268C56.5354 6.4587 56.2242 6.17246 56.0546 6.03907C55.8851 5.90289 55.5933 5.68891 55.4015 5.56385C55.2097 5.43602 54.929 5.26372 54.7762 5.17757C54.6233 5.0942 54.3843 4.97192 54.2481 4.908C54.1119 4.84409 53.8785 4.74404 53.7339 4.68568C53.5894 4.62732 53.3449 4.54117 53.192 4.49115C53.0391 4.44391 52.739 4.36054 52.525 4.31051C52.311 4.25771 51.9552 4.18824 51.7329 4.15211C51.3799 4.09931 51.2215 4.09097 50.4683 4.09097C49.7068 4.09097 49.5595 4.09653 49.2038 4.15211C48.9814 4.18824 48.6563 4.24938 48.4812 4.28828C48.3061 4.32719 48.0142 4.405 47.8336 4.46058C47.6557 4.51616 47.5056 4.55785 47.5001 4.55229C47.4973 4.54951 47.564 4.41056 47.6502 4.2466C47.7335 4.08263 47.8753 3.8353 47.9614 3.69913C48.0476 3.56018 48.2088 3.32674 48.32 3.17945C48.4311 3.03216 48.6368 2.78483 48.773 2.62921C48.9092 2.47358 49.1287 2.24848 49.2594 2.13176C49.39 2.01226 49.6012 1.82885 49.7318 1.72602C49.8624 1.62042 50.1237 1.43145 50.3155 1.30639C50.5072 1.18134 50.8185 0.995141 51.0103 0.895096C51.202 0.795051 51.5328 0.644984 51.7468 0.558834C51.9608 0.472684 52.286 0.358744 52.4694 0.305943C52.6528 0.253142 52.953 0.178108 53.1364 0.141981C53.3198 0.105853 53.595 0.0641681 53.7478 0.047494Z" fill="#C24410"/>
<path d="M49.2043 4.16049C49.4266 4.12714 49.6573 4.09657 49.7185 4.09101C49.7796 4.08546 50.1743 4.08268 50.5939 4.08823C51.2026 4.09657 51.436 4.11047 51.7473 4.15771C51.9613 4.18828 52.3115 4.25776 52.5255 4.31056C52.7395 4.36058 53.0397 4.44395 53.1925 4.49119C53.3454 4.54122 53.59 4.62736 53.7345 4.68572C53.879 4.74408 54.1125 4.84413 54.2486 4.90805C54.3848 4.97196 54.6238 5.09424 54.7767 5.17761C54.9296 5.26376 55.2103 5.43606 55.402 5.5639C55.5938 5.68895 55.8856 5.90294 56.0552 6.03911C56.2247 6.1725 56.536 6.45874 56.7528 6.67273C56.9668 6.88671 57.253 7.20074 57.3864 7.36748C57.5198 7.53422 57.7561 7.85937 57.9089 8.09003C58.0785 8.3457 58.2869 8.70975 58.4453 9.03489C58.5898 9.32669 58.7483 9.68241 58.8038 9.82692C58.8566 9.97143 58.9428 10.2354 58.9956 10.4105C59.0484 10.5856 59.1235 10.8746 59.1624 11.0497C59.2013 11.2248 59.2541 11.4999 59.2763 11.6611C59.3013 11.8223 59.3347 12.1335 59.3514 12.3558C59.3708 12.5893 59.3764 12.9561 59.3653 13.2312C59.3569 13.4924 59.3291 13.8593 59.3069 14.051C59.2819 14.2428 59.2596 14.4234 59.2569 14.454C59.2541 14.4901 59.1596 14.5707 58.9873 14.6846C58.8428 14.7819 58.4981 14.9709 58.223 15.1071C57.9478 15.2432 57.5976 15.3989 57.4448 15.4572C57.2919 15.5128 57.0112 15.6017 56.8195 15.6545C56.6277 15.7045 56.297 15.7796 56.083 15.8157C55.869 15.8518 55.5132 15.8963 55.2909 15.9158C55.0519 15.9352 54.7072 15.9408 54.4432 15.9324C54.1986 15.9213 53.854 15.8963 53.6789 15.8713C53.5038 15.8491 53.2342 15.8046 53.0814 15.774C52.9285 15.7435 52.6478 15.6712 52.456 15.6184C52.2643 15.5628 51.9391 15.4489 51.7334 15.3655C51.5278 15.2821 51.2026 15.1348 51.0108 15.032C50.819 14.932 50.5078 14.7486 50.316 14.6207C50.1242 14.4957 49.8324 14.2789 49.6629 14.1427C49.4933 14.0066 49.2265 13.762 49.0681 13.6036C48.9097 13.4452 48.6651 13.1756 48.5289 13.0089C48.39 12.8422 48.1649 12.5337 48.0315 12.328C47.8953 12.1224 47.6868 11.7583 47.5673 11.5221C47.4506 11.2859 47.2922 10.9274 47.2199 10.7301C47.1477 10.5328 47.0393 10.1799 46.9809 9.95197C46.9225 9.72131 46.8475 9.36004 46.8141 9.14606C46.7808 8.92373 46.7502 8.52911 46.7391 8.22898C46.7308 7.89827 46.7363 7.55645 46.7558 7.3119C46.7752 7.09792 46.8141 6.77833 46.8447 6.60325C46.8753 6.42817 46.942 6.1197 46.992 5.92239C47.0448 5.72508 47.1254 5.45551 47.1727 5.3249C47.2199 5.19429 47.3089 4.96918 47.3728 4.82468C47.4339 4.68017 47.4978 4.55789 47.5173 4.55789C47.5367 4.55511 47.6952 4.50787 47.8703 4.45229C48.0454 4.39671 48.3261 4.32167 48.4956 4.28555C48.6651 4.24664 48.982 4.19106 49.2043 4.16049Z" fill="#964626"/>
</svg>
